{"asset":{"version":"2.0","generator":"babylon.js glTF exporter for 3ds max 2018 v1.2.21","copyright":"2017 (c) BabylonJS"},"extensionsUsed":["KHR_lights"],"scene":0,"scenes":[{"nodes":[0,1,2,3,4],"extensions":{}}],"nodes":[{"mesh":0,"translation":[-3812.44458,0.0,-6228.6377],"rotation":[0.0,0.0,0.0,1.0],"scale":[1.0,1.0,1.0],"name":"Cone001"},{"mesh":1,"translation":[-2825.32666,0.0,-4219.63525],"rotation":[0.0,0.0,0.0,1.0],"scale":[1.0,1.0,1.0],"name":"Plane001"},{"mesh":2,"translation":[-3478.7644,344.451,-4413.06],"rotation":[0.0,0.0,-0.7071068,0.7071068],"scale":[1.0,1.0,1.0],"name":"Plane002"},{"translation":[-2683.7793,142.282288,-4186.41],"rotation":[0.0,0.0,0.0,1.0],"scale":[1.0,1.0,1.0],"name":"TPhotometricLight001.Target"},{"translation":[-1779.64331,788.2195,-4348.146],"rotation":[0.0,0.0,0.0,1.0],"scale":[1.0,1.0,1.0],"name":"TPhotometricLight001","extensions":{"KHR_lights":{"light":0}}}],"meshes":[{"primitives":[{"attributes":{"POSITION":1,"NORMAL":2},"indices":0}],"name":"Cone001"},{"primitives":[{"attributes":{"POSITION":4,"NORMAL":5,"TEXCOORD_0":6},"indices":3}],"name":"Plane001"},{"primitives":[{"attributes":{"POSITION":8,"NORMAL":9,"TEXCOORD_0":10},"indices":7}],"name":"Plane002"}],"accessors":[{"bufferView":0,"componentType":5123,"count":2064,"type":"SCALAR","name":"accessorIndices"},{"bufferView":1,"componentType":5126,"count":2064,"max":[1159.73853,203.32782,2121.69922],"min":[1106.737,-2.73400879,2069.93945],"type":"VEC3","name":"accessorPositions"},{"bufferView":1,"byteOffset":24768,"componentType":5126,"count":2064,"type":"VEC3","name":"accessorNormals"},{"bufferView":0,"byteOffset":4128,"componentType":5123,"count":96,"type":"SCALAR","name":"accessorIndices"},{"bufferView":1,"byteOffset":49536,"componentType":5126,"count":96,"max":[562.3032,0.0,511.060547],"min":[-562.3032,0.0,-511.060547],"type":"VEC3","name":"accessorPositions"},{"bufferView":1,"byteOffset":50688,"componentType":5126,"count":96,"type":"VEC3","name":"accessorNormals"},{"bufferView":2,"componentType":5126,"count":96,"type":"VEC2","name":"accessorUVs"},{"bufferView":0,"byteOffset":4320,"componentType":5123,"count":96,"type":"SCALAR","name":"accessorIndices"},{"bufferView":1,"byteOffset":51840,"componentType":5126,"count":96,"max":[614.15625,0.0,542.855957],"min":[-614.15625,0.0,-542.855957],"type":"VEC3","name":"accessorPositions"},{"bufferView":1,"byteOffset":52992,"componentType":5126,"count":96,"type":"VEC3","name":"accessorNormals"},{"bufferView":2,"byteOffset":768,"componentType":5126,"count":96,"type":"VEC2","name":"accessorUVs"}],"bufferViews":[{"buffer":0,"byteLength":4512,"name":"bufferViewScalar"},{"buffer":0,"byteOffset":4512,"byteLength":54144,"byteStride":12,"name":"bufferViewFloatVec3"},{"buffer":0,"byteOffset":58656,"byteLength":1536,"byteStride":8,"name":"bufferViewFloatVec2"}],"buffers":[{"uri":"B.bin","byteLength":60192}],"extensions":{"KHR_lights":{"lights":[{"color":[1.0,0.99999994,1.00000012],"intensity":100000.0,"type":"point","range":3.40282347E+38}]}}}