{"asset":{"version":"2.0","generator":"babylon.js glTF exporter for 3ds max 2018 v1.2.21","copyright":"2017 (c) BabylonJS"},"extensionsUsed":["KHR_lights"],"scene":0,"scenes":[{"nodes":[0,1,2],"extensions":{"KHR_lights":{"light":0}}}],"nodes":[{"mesh":0,"translation":[-2663.6582,2.064125,-4130.06348],"rotation":[0.0,0.0,0.0,1.0],"scale":[1.0,1.0,1.0],"name":"Tree"},{"mesh":1,"translation":[-2662.19287,189.472382,-4130.42041],"rotation":[0.0,0.0,0.0,1.0],"scale":[1.0,1.0,1.0],"name":"Bush"},{"mesh":2,"translation":[-2686.08984,181.80545,-4110.146],"rotation":[0.2512862,0.3643306,0.5152132,0.7339441],"scale":[0.327788621,0.327788621,0.327788681],"name":"Little Bush"}],"meshes":[{"primitives":[{"attributes":{"POSITION":1,"NORMAL":2},"indices":0,"mode":4,"material":0}],"name":"Tree"},{"primitives":[{"attributes":{"POSITION":4,"NORMAL":5},"indices":3,"mode":4,"material":1}],"name":"Bush"},{"primitives":[{"attributes":{"POSITION":7,"NORMAL":8},"indices":6,"mode":4,"material":1}],"name":"Little Bush"}],"accessors":[{"bufferView":0,"componentType":5123,"count":1182,"type":"SCALAR","name":"accessorIndices"},{"bufferView":1,"componentType":5126,"count":1182,"max":[62.9956055,191.990784,66.3322754],"min":[-68.20996,-2.734007,-60.5302734],"type":"VEC3","name":"accessorPositions"},{"bufferView":1,"byteOffset":14184,"componentType":5126,"count":1182,"type":"VEC3","name":"accessorNormals"},{"bufferView":0,"byteOffset":2364,"componentType":5123,"count":468,"type":"SCALAR","name":"accessorIndices"},{"bufferView":1,"byteOffset":28368,"componentType":5126,"count":468,"max":[9.81543,13.615036,12.3291016],"min":[-15.6967773,-0.5135803,-14.8203125],"type":"VEC3","name":"accessorPositions"},{"bufferView":1,"byteOffset":33984,"componentType":5126,"count":468,"type":"VEC3","name":"accessorNormals"},{"bufferView":0,"byteOffset":3300,"componentType":5123,"count":468,"type":"SCALAR","name":"accessorIndices"},{"bufferView":1,"byteOffset":39600,"componentType":5126,"count":468,"max":[9.815186,13.6147461,12.328125],"min":[-15.6970215,-0.5126953,-14.8203125],"type":"VEC3","name":"accessorPositions"},{"bufferView":1,"byteOffset":45216,"componentType":5126,"count":468,"type":"VEC3","name":"accessorNormals"}],"bufferViews":[{"buffer":0,"byteLength":4236,"name":"bufferViewScalar"},{"buffer":0,"byteOffset":4236,"byteLength":50832,"byteStride":12,"name":"bufferViewFloatVec3"}],"buffers":[{"uri":"BigTreeModelB.bin","byteLength":55068}],"materials":[{"pbrMetallicRoughness":{"baseColorFactor":[0.42892164,0.245098069,0.14297387,1.0],"metallicFactor":0.0,"roughnessFactor":0.9},"emissiveFactor":[0.0,0.0,0.0],"alphaMode":"OPAQUE","name":"Tree"},{"pbrMetallicRoughness":{"baseColorFactor":[0.13888891,0.400326878,0.13888891,1.0],"metallicFactor":0.0,"roughnessFactor":0.9},"emissiveFactor":[0.0,0.0,0.0],"alphaMode":"OPAQUE","name":"Bush"}],"extensions":{"KHR_lights":{"lights":[{"color":[1.0,1.0,1.0],"intensity":1.0,"type":"ambient"}]}}}