{"asset":{"version":"2.0","generator":"babylon.js glTF exporter for 3ds max 2018 v1.2.21","copyright":"2017 (c) BabylonJS"},"extensionsUsed":["KHR_lights"],"scene":0,"scenes":[{"nodes":[0],"extensions":{"KHR_lights":{"light":0}}}],"nodes":[{"mesh":0,"translation":[-3812.44458,0.0,-6228.6377],"rotation":[0.0,0.0,0.0,1.0],"scale":[1.0,1.0,1.0],"name":"Cone001"}],"meshes":[{"primitives":[{"attributes":{"POSITION":1,"NORMAL":2},"indices":0,"mode":4,"material":0},{"attributes":{"POSITION":4,"NORMAL":5},"indices":3,"mode":4,"material":1}],"name":"Cone001"}],"accessors":[{"bufferView":0,"componentType":5123,"count":1194,"type":"SCALAR","name":"accessorIndices"},{"bufferView":1,"componentType":5126,"count":1194,"max":[1195.13818,191.990784,2145.8208],"min":[1070.64307,-5.34320545,2037.14746],"type":"VEC3","name":"accessorPositions"},{"bufferView":1,"byteOffset":14328,"componentType":5126,"count":1194,"type":"VEC3","name":"accessorNormals"},{"bufferView":0,"byteOffset":2388,"componentType":5123,"count":480,"type":"SCALAR","name":"accessorIndices"},{"bufferView":1,"byteOffset":28656,"componentType":5126,"count":480,"max":[1171.57349,207.970551,2117.94922],"min":[1130.71826,182.715958,2073.461],"type":"VEC3","name":"accessorPositions"},{"bufferView":1,"byteOffset":34416,"componentType":5126,"count":480,"type":"VEC3","name":"accessorNormals"}],"bufferViews":[{"buffer":0,"byteLength":3348,"name":"bufferViewScalar"},{"buffer":0,"byteOffset":3348,"byteLength":40176,"byteStride":12,"name":"bufferViewFloatVec3"}],"buffers":[{"uri":"BigTreeModelB.bin","byteLength":43524}],"materials":[{"pbrMetallicRoughness":{"baseColorFactor":[0.482026219,0.2900327,0.163398713,1.0],"metallicFactor":0.0,"roughnessFactor":0.9},"emissiveFactor":[0.0,0.0,0.0],"alphaMode":"OPAQUE","name":"01 - Default"},{"pbrMetallicRoughness":{"baseColorFactor":[0.314542532,0.4861112,0.159313738,1.0],"metallicFactor":0.0,"roughnessFactor":0.9},"emissiveFactor":[0.0,0.0,0.0],"alphaMode":"OPAQUE","name":"Bush"}],"extensions":{"KHR_lights":{"lights":[{"color":[1.0,1.0,1.0],"intensity":1.0,"type":"ambient"}]}}}