{"asset":{"version":"2.0","generator":"babylon.js glTF exporter for 3ds max 2018 v1.2.21","copyright":"2017 (c) BabylonJS"},"extensionsUsed":["KHR_lights"],"scene":0,"scenes":[{"nodes":[0],"extensions":{"KHR_lights":{"light":0}}}],"nodes":[{"mesh":0,"translation":[-60815.92,83971.54,-62.61],"rotation":[-0.5213339,-0.47771433,-0.47771433,0.5213339],"scale":[1.0,1.0,1.0],"name":"DeadTree"}],"meshes":[{"primitives":[{"attributes":{"POSITION":1,"NORMAL":2,"TEXCOORD_0":3},"indices":0,"mode":4,"material":0}],"name":"DeadTree"}],"accessors":[{"bufferView":0,"componentType":5123,"count":5367,"type":"SCALAR","name":"accessorIndices"},{"bufferView":1,"componentType":5126,"count":5367,"max":[69056.89,58530.9844,60815.93],"min":[-69056.88,-58145.125,-60815.92],"type":"VEC3","name":"accessorPositions"},{"bufferView":1,"byteOffset":64404,"componentType":5126,"count":5367,"type":"VEC3","name":"accessorNormals"},{"bufferView":2,"componentType":5126,"count":5367,"type":"VEC2","name":"accessorUVs"}],"bufferViews":[{"buffer":0,"byteLength":10736,"name":"bufferViewScalar"},{"buffer":0,"byteOffset":10736,"byteLength":128808,"byteStride":12,"name":"bufferViewFloatVec3"},{"buffer":0,"byteOffset":139544,"byteLength":42936,"byteStride":8,"name":"bufferViewFloatVec2"}],"buffers":[{"uri":"DeadTree.bin","byteLength":182480}],"materials":[{"pbrMetallicRoughness":{"baseColorFactor":[0.179738581,0.08986929,0.02042484,1.0],"metallicFactor":0.0,"roughnessFactor":0.9},"emissiveFactor":[0.0,0.0,0.0],"alphaMode":"OPAQUE","name":"Tree"}],"extensions":{"KHR_lights":{"lights":[{"color":[1.0,1.0,1.0],"intensity":1.0,"type":"ambient"}]}}}