{"asset":{"version":"2.0","generator":"babylon.js glTF exporter for 3ds max 2018 v1.2.21","copyright":"2017 (c) BabylonJS"},"extensionsUsed":["KHR_lights"],"scene":0,"scenes":[{"nodes":[0],"extensions":{"KHR_lights":{"light":0}}}],"nodes":[{"mesh":0,"translation":[-41.56598,73.32409,-20.9481449],"rotation":[0.49999997,-0.50000006,0.5000001,0.49999997],"scale":[1.0,1.0,1.0],"name":"Box001"}],"meshes":[{"primitives":[{"attributes":{"POSITION":1,"NORMAL":2,"TEXCOORD_0":3},"indices":0,"mode":4,"material":0}],"name":"Box001"}],"accessors":[{"bufferView":0,"componentType":5123,"count":13641,"type":"SCALAR","name":"accessorIndices"},{"bufferView":1,"componentType":5126,"count":13641,"max":[69.89572,14.1812172,72.85915],"min":[-28.1556835,-14.1812019,-76.96267],"type":"VEC3","name":"accessorPositions"},{"bufferView":1,"byteOffset":163692,"componentType":5126,"count":13641,"type":"VEC3","name":"accessorNormals"},{"bufferView":2,"componentType":5126,"count":13641,"type":"VEC2","name":"accessorUVs"}],"bufferViews":[{"buffer":0,"byteLength":27284,"name":"bufferViewScalar"},{"buffer":0,"byteOffset":27284,"byteLength":327384,"byteStride":12,"name":"bufferViewFloatVec3"},{"buffer":0,"byteOffset":354668,"byteLength":109128,"byteStride":8,"name":"bufferViewFloatVec2"}],"buffers":[{"uri":"giraffeB.bin","byteLength":463796}],"materials":[{"pbrMetallicRoughness":{"baseColorFactor":[0.9272877,0.755719,0.187908515,1.0],"metallicFactor":0.0,"roughnessFactor":0.9},"emissiveFactor":[0.0,0.0,0.0],"alphaMode":"OPAQUE","name":"03 - Default"}],"extensions":{"KHR_lights":{"lights":[{"color":[1.0,1.0,1.0],"intensity":1.0,"type":"ambient"}]}}}