{"asset":{"version":"2.0","generator":"babylon.js glTF exporter for 3ds max 2018 v1.2.21","copyright":"2017 (c) BabylonJS"},"extensionsUsed":["KHR_lights"],"scene":0,"scenes":[{"nodes":[0,1],"extensions":{"KHR_lights":{"light":0}}}],"nodes":[{"mesh":0,"translation":[0.0,73.32409,-20.9481449],"rotation":[0.49999997,-0.50000006,0.5000001,0.49999997],"scale":[1.0,1.0,1.0],"name":"Box001"},{"mesh":0,"translation":[0.0,73.32409,-20.9481449],"rotation":[0.50000006,-0.49999997,0.49999997,0.5000001],"scale":[1.0,-1.0,1.0],"name":"Box002"}],"meshes":[{"primitives":[{"attributes":{"POSITION":1,"NORMAL":2,"TEXCOORD_0":3},"indices":0,"mode":4,"material":0}],"name":"Box001"}],"accessors":[{"bufferView":0,"componentType":5123,"count":5301,"type":"SCALAR","name":"accessorIndices"},{"bufferView":1,"componentType":5126,"count":5301,"max":[143.4534,14.1812172,72.85915],"min":[45.4020081,-2.73887444,-76.96267],"type":"VEC3","name":"accessorPositions"},{"bufferView":1,"byteOffset":63612,"componentType":5126,"count":5301,"type":"VEC3","name":"accessorNormals"},{"bufferView":2,"componentType":5126,"count":5301,"type":"VEC2","name":"accessorUVs"}],"bufferViews":[{"buffer":0,"byteLength":10604,"name":"bufferViewScalar"},{"buffer":0,"byteOffset":10604,"byteLength":127224,"byteStride":12,"name":"bufferViewFloatVec3"},{"buffer":0,"byteOffset":137828,"byteLength":42408,"byteStride":8,"name":"bufferViewFloatVec2"}],"buffers":[{"uri":"giraffeA.bin","byteLength":180236}],"materials":[{"pbrMetallicRoughness":{"baseColorFactor":[0.796568751,0.392156929,0.110294133,1.0],"metallicFactor":0.0,"roughnessFactor":0.9},"emissiveFactor":[0.0,0.0,0.0],"alphaMode":"OPAQUE","name":"03 - Default"}],"extensions":{"KHR_lights":{"lights":[{"color":[1.0,1.0,1.0],"intensity":1.0,"type":"ambient"}]}}}