{"asset":{"version":"2.0","generator":"babylon.js glTF exporter for 3ds max 2018 v1.2.21","copyright":"2017 (c) BabylonJS"},"extensionsUsed":["KHR_lights"],"scene":0,"scenes":[{"nodes":[0],"extensions":{"KHR_lights":{"light":0}}}],"nodes":[{"mesh":0,"translation":[-41.56598,73.32409,-20.9481449],"rotation":[0.49999997,-0.50000006,0.5000001,0.49999997],"scale":[1.0,1.0,1.0],"name":"Box001"}],"meshes":[{"primitives":[{"attributes":{"POSITION":1,"NORMAL":2,"TEXCOORD_0":3},"indices":0,"mode":4,"material":0}],"name":"Box001"}],"accessors":[{"bufferView":0,"componentType":5123,"count":14109,"type":"SCALAR","name":"accessorIndices"},{"bufferView":1,"componentType":5126,"count":14109,"max":[69.89572,14.1812172,72.85915],"min":[-28.1556835,-14.1812019,-76.96267],"type":"VEC3","name":"accessorPositions"},{"bufferView":1,"byteOffset":169308,"componentType":5126,"count":14109,"type":"VEC3","name":"accessorNormals"},{"bufferView":2,"componentType":5126,"count":14109,"type":"VEC2","name":"accessorUVs"}],"bufferViews":[{"buffer":0,"byteLength":28220,"name":"bufferViewScalar"},{"buffer":0,"byteOffset":28220,"byteLength":338616,"byteStride":12,"name":"bufferViewFloatVec3"},{"buffer":0,"byteOffset":366836,"byteLength":112872,"byteStride":8,"name":"bufferViewFloatVec2"}],"buffers":[{"uri":"giraffeD.bin","byteLength":479708}],"materials":[{"pbrMetallicRoughness":{"baseColorFactor":[0.6617648,0.539215744,0.110294133,1.0],"metallicFactor":0.0,"roughnessFactor":0.9},"emissiveFactor":[0.0,0.0,0.0],"alphaMode":"OPAQUE","name":"03 - Default"}],"extensions":{"KHR_lights":{"lights":[{"color":[1.0,1.0,1.0],"intensity":1.0,"type":"ambient"}]}}}