{"asset":{"version":"2.0","generator":"babylon.js glTF exporter for 3ds max 2018 v1.2.21","copyright":"2017 (c) BabylonJS"},"extensionsUsed":["KHR_lights"],"scene":0,"scenes":[{"nodes":[0],"extensions":{"KHR_lights":{"light":0}}}],"nodes":[{"children":[1,2,3,4,5,6,7,8],"translation":[1.62603188,24.0472565,-3.794282],"rotation":[0.0,0.0,0.0,1.0],"scale":[1.0,1.0,1.0],"name":"GrassB"},{"mesh":0,"translation":[-42.2386169,-24.0472565,-90.81802],"rotation":[0.0,0.0,0.0,1.0],"scale":[1.0,1.0,1.0],"name":"Hedra001"},{"mesh":1,"translation":[-13.7601452,-23.7113342,5.07587433],"rotation":[0.0,0.0,0.0,1.0],"scale":[1.0,1.0,1.0],"name":"grass7"},{"mesh":2,"translation":[-13.7601452,-23.7113342,7.16943359],"rotation":[0.0,0.0,0.0,1.0],"scale":[1.0,1.0,1.0],"name":"grass6"},{"mesh":3,"translation":[-13.7601452,-23.7113342,5.07587433],"rotation":[0.0,0.0,0.0,1.0],"scale":[1.0,1.0,1.0],"name":"grass5"},{"mesh":4,"translation":[-13.7601452,-23.7113342,5.07587433],"rotation":[0.0,0.0,0.0,1.0],"scale":[1.0,1.0,1.0],"name":"grass4"},{"mesh":5,"translation":[-13.7601452,-23.7113342,5.07587433],"rotation":[0.0,0.0,0.0,1.0],"scale":[1.0,1.0,1.0],"name":"grass3"},{"mesh":6,"translation":[-13.7601452,-23.7113342,5.07587433],"rotation":[0.0,0.0,0.0,1.0],"scale":[1.0,1.0,1.0],"name":"grass2"},{"mesh":7,"translation":[-13.7601452,-23.7113342,5.07587433],"rotation":[0.0,0.0,0.0,1.0],"scale":[1.0,1.0,1.0],"name":"grass1"}],"meshes":[{"primitives":[{"attributes":{"POSITION":1,"NORMAL":2,"TEXCOORD_0":3},"indices":0,"mode":4,"material":0}],"name":"Hedra001"},{"primitives":[{"attributes":{"POSITION":5,"NORMAL":6,"TEXCOORD_0":7},"indices":4,"mode":4,"material":1}],"name":"grass7"},{"primitives":[{"attributes":{"POSITION":9,"NORMAL":10,"TEXCOORD_0":11},"indices":8,"mode":4,"material":2}],"name":"grass6"},{"primitives":[{"attributes":{"POSITION":13,"NORMAL":14,"TEXCOORD_0":15},"indices":12,"mode":4,"material":3}],"name":"grass5"},{"primitives":[{"attributes":{"POSITION":17,"NORMAL":18,"TEXCOORD_0":19},"indices":16,"mode":4,"material":1}],"name":"grass4"},{"primitives":[{"attributes":{"POSITION":21,"NORMAL":22,"TEXCOORD_0":23},"indices":20,"mode":4,"material":4}],"name":"grass3"},{"primitives":[{"attributes":{"POSITION":25,"NORMAL":26,"TEXCOORD_0":27},"indices":24,"mode":4,"material":3}],"name":"grass2"},{"primitives":[{"attributes":{"POSITION":29,"NORMAL":30,"TEXCOORD_0":31},"indices":28,"mode":4,"material":2}],"name":"grass1"}],"accessors":[{"bufferView":0,"componentType":5123,"count":60,"type":"SCALAR","name":"accessorIndices"},{"bufferView":1,"componentType":5126,"count":60,"max":[44.4700851,4.93411732,68.91483],"min":[36.66677,-1.80596662,61.301857],"type":"VEC3","name":"accessorPositions"},{"bufferView":1,"byteOffset":720,"componentType":5126,"count":60,"type":"VEC3","name":"accessorNormals"},{"bufferView":2,"componentType":5126,"count":60,"type":"VEC2","name":"accessorUVs"},{"bufferView":0,"byteOffset":120,"componentType":5123,"count":156,"type":"SCALAR","name":"accessorIndices"},{"bufferView":1,"byteOffset":1440,"componentType":5126,"count":156,"max":[28.9571953,12.2110529,-42.7926521],"min":[24.473423,-0.243777275,-48.82528],"type":"VEC3","name":"accessorPositions"},{"bufferView":1,"byteOffset":3312,"componentType":5126,"count":156,"type":"VEC3","name":"accessorNormals"},{"bufferView":2,"byteOffset":480,"componentType":5126,"count":156,"type":"VEC2","name":"accessorUVs"},{"bufferView":0,"byteOffset":432,"componentType":5123,"count":156,"type":"SCALAR","name":"accessorIndices"},{"bufferView":1,"byteOffset":5184,"componentType":5126,"count":156,"max":[29.6260376,10.8615208,-3.3010695],"min":[25.8853188,-0.008167744,-6.9583497],"type":"VEC3","name":"accessorPositions"},{"bufferView":1,"byteOffset":7056,"componentType":5126,"count":156,"type":"VEC3","name":"accessorNormals"},{"bufferView":2,"byteOffset":1728,"componentType":5126,"count":156,"type":"VEC2","name":"accessorUVs"},{"bufferView":0,"byteOffset":744,"componentType":5123,"count":156,"type":"SCALAR","name":"accessorIndices"},{"bufferView":1,"byteOffset":8928,"componentType":5126,"count":156,"max":[29.8560257,16.93384,-13.1031914],"min":[24.0277328,-0.456027985,-19.5545731],"type":"VEC3","name":"accessorPositions"},{"bufferView":1,"byteOffset":10800,"componentType":5126,"count":156,"type":"VEC3","name":"accessorNormals"},{"bufferView":2,"byteOffset":2976,"componentType":5126,"count":156,"type":"VEC2","name":"accessorUVs"},{"bufferView":0,"byteOffset":1056,"componentType":5123,"count":156,"type":"SCALAR","name":"accessorIndices"},{"bufferView":1,"byteOffset":12672,"componentType":5126,"count":156,"max":[6.55667639,21.1186485,7.607874],"min":[-0.7941122,-0.81388855,-0.528766632],"type":"VEC3","name":"accessorPositions"},{"bufferView":1,"byteOffset":14544,"componentType":5126,"count":156,"type":"VEC3","name":"accessorNormals"},{"bufferView":2,"byteOffset":4224,"componentType":5126,"count":156,"type":"VEC2","name":"accessorUVs"},{"bufferView":0,"byteOffset":1368,"componentType":5123,"count":156,"type":"SCALAR","name":"accessorIndices"},{"bufferView":1,"byteOffset":16416,"componentType":5126,"count":156,"max":[43.427845,47.6997643,17.4497414],"min":[26.3026161,-1.0352459,7.44660568],"type":"VEC3","name":"accessorPositions"},{"bufferView":1,"byteOffset":18288,"componentType":5126,"count":156,"type":"VEC3","name":"accessorNormals"},{"bufferView":2,"byteOffset":5472,"componentType":5126,"count":156,"type":"VEC2","name":"accessorUVs"},{"bufferView":0,"byteOffset":1680,"componentType":5123,"count":156,"type":"SCALAR","name":"accessorIndices"},{"bufferView":1,"byteOffset":20160,"componentType":5126,"count":156,"max":[-0.06426048,49.5645561,38.67353],"min":[-12.4319,-0.471843719,23.6679535],"type":"VEC3","name":"accessorPositions"},{"bufferView":1,"byteOffset":22032,"componentType":5126,"count":156,"type":"VEC3","name":"accessorNormals"},{"bufferView":2,"byteOffset":6720,"componentType":5126,"count":156,"type":"VEC2","name":"accessorUVs"},{"bufferView":0,"byteOffset":1992,"componentType":5123,"count":156,"type":"SCALAR","name":"accessorIndices"},{"bufferView":1,"byteOffset":23904,"componentType":5126,"count":156,"max":[-5.19068527,30.6296825,-21.2790337],"min":[-15.9075546,-0.96353054,-31.3148422],"type":"VEC3","name":"accessorPositions"},{"bufferView":1,"byteOffset":25776,"componentType":5126,"count":156,"type":"VEC3","name":"accessorNormals"},{"bufferView":2,"byteOffset":7968,"componentType":5126,"count":156,"type":"VEC2","name":"accessorUVs"}],"bufferViews":[{"buffer":0,"byteLength":2304,"name":"bufferViewScalar"},{"buffer":0,"byteOffset":2304,"byteLength":27648,"byteStride":12,"name":"bufferViewFloatVec3"},{"buffer":0,"byteOffset":29952,"byteLength":9216,"byteStride":8,"name":"bufferViewFloatVec2"}],"buffers":[{"uri":"Grasswithrock.bin","byteLength":39168}],"materials":[{"pbrMetallicRoughness":{"baseColorFactor":[0.14297387,0.14297387,0.14297387,1.0],"metallicFactor":0.0,"roughnessFactor":0.9},"emissiveFactor":[0.0,0.0,0.0],"alphaMode":"OPAQUE","name":"Material 6"},{"pbrMetallicRoughness":{"baseColorFactor":[0.8047387,0.465686351,0.171568647,1.0],"metallicFactor":0.0,"roughnessFactor":0.9},"emissiveFactor":[0.0,0.0,0.0],"alphaMode":"OPAQUE","name":"Material 3"},{"pbrMetallicRoughness":{"baseColorFactor":[0.951797545,0.506536,0.110294133,1.0],"metallicFactor":0.0,"roughnessFactor":0.9},"emissiveFactor":[0.0,0.0,0.0],"alphaMode":"OPAQUE","name":"01 - Default"},{"pbrMetallicRoughness":{"baseColorFactor":[0.2655229,0.122549035,0.0612745173,1.0],"metallicFactor":0.0,"roughnessFactor":0.9},"emissiveFactor":[0.0,0.0,0.0],"alphaMode":"OPAQUE","name":"Material 2"},{"pbrMetallicRoughness":{"baseColorFactor":[0.8741831,0.2287582,0.02042484,1.0],"metallicFactor":0.0,"roughnessFactor":0.9},"emissiveFactor":[0.0,0.0,0.0],"alphaMode":"OPAQUE","name":"Material 4"}],"extensions":{"KHR_lights":{"lights":[{"color":[1.0,1.0,1.0],"intensity":1.0,"type":"ambient"}]}}}