{"asset":{"version":"2.0","generator":"babylon.js glTF exporter for 3ds max 2018 v1.2.21","copyright":"2017 (c) BabylonJS"},"extensionsUsed":["KHR_lights"],"scene":0,"scenes":[{"nodes":[0],"extensions":{"KHR_lights":{"light":0}}}],"nodes":[{"children":[1,2,3,4],"translation":[-2.399013,21.55465,5.12280655],"rotation":[0.0,0.0,0.0,1.0],"scale":[1.0,1.0,1.0],"name":"Grass"},{"mesh":0,"translation":[-5.546158,-21.8844776,4.20251465],"rotation":[0.0,0.0,0.0,1.0],"scale":[1.0,1.0,1.0],"name":"grass02"},{"mesh":1,"translation":[-5.546158,-21.8844776,8.012705],"rotation":[0.0,0.0,0.0,1.0],"scale":[1.0,1.0,1.0],"name":"grass03"},{"mesh":2,"translation":[-5.546158,-21.8844776,8.012705],"rotation":[0.0,0.0,0.0,1.0],"scale":[1.0,1.0,1.0],"name":"grass04"},{"mesh":3,"translation":[-5.546158,-21.8844776,8.012705],"rotation":[0.0,0.0,0.0,1.0],"scale":[1.0,1.0,1.0],"name":"grass01"}],"meshes":[{"primitives":[{"attributes":{"POSITION":1,"NORMAL":2},"indices":0,"mode":4,"material":0}],"name":"grass02"},{"primitives":[{"attributes":{"POSITION":4,"NORMAL":5},"indices":3,"mode":4,"material":1}],"name":"grass03"},{"primitives":[{"attributes":{"POSITION":7,"NORMAL":8},"indices":6,"mode":4,"material":2},{"attributes":{"POSITION":10,"NORMAL":11},"indices":9,"mode":4,"material":1},{"attributes":{"POSITION":13,"NORMAL":14},"indices":12,"mode":4,"material":0}],"name":"grass04"},{"primitives":[{"attributes":{"POSITION":16,"NORMAL":17},"indices":15,"mode":4,"material":2}],"name":"grass01"}],"accessors":[{"bufferView":0,"componentType":5123,"count":576,"type":"SCALAR","name":"accessorIndices"},{"bufferView":1,"componentType":5126,"count":576,"max":[8.235595,26.5638046,-4.65283775],"min":[-8.646891,-0.523667336,-14.169632],"type":"VEC3","name":"accessorPositions"},{"bufferView":1,"byteOffset":6912,"componentType":5126,"count":576,"type":"VEC3","name":"accessorNormals"},{"bufferView":0,"byteOffset":1152,"componentType":5123,"count":576,"type":"SCALAR","name":"accessorIndices"},{"bufferView":1,"byteOffset":13824,"componentType":5126,"count":576,"max":[19.7392044,39.7741547,-11.060112],"min":[8.742686,-0.709625244,-15.0946026],"type":"VEC3","name":"accessorPositions"},{"bufferView":1,"byteOffset":20736,"componentType":5126,"count":576,"type":"VEC3","name":"accessorNormals"},{"bufferView":0,"byteOffset":2304,"componentType":5123,"count":36,"type":"SCALAR","name":"accessorIndices"},{"bufferView":1,"byteOffset":27648,"componentType":5126,"count":36,"max":[6.882883,19.35067,1.95441246],"min":[6.336962,19.2432861,1.745369],"type":"VEC3","name":"accessorPositions"},{"bufferView":1,"byteOffset":28080,"componentType":5126,"count":36,"type":"VEC3","name":"accessorNormals"},{"bufferView":0,"byteOffset":2376,"componentType":5123,"count":36,"type":"SCALAR","name":"accessorIndices"},{"bufferView":1,"byteOffset":28512,"componentType":5126,"count":36,"max":[8.9028635,-0.806715,-8.304438],"min":[5.21929741,-0.8992882,-10.4716873],"type":"VEC3","name":"accessorPositions"},{"bufferView":1,"byteOffset":28944,"componentType":5126,"count":36,"type":"VEC3","name":"accessorNormals"},{"bufferView":0,"byteOffset":2448,"componentType":5123,"count":216,"type":"SCALAR","name":"accessorIndices"},{"bufferView":1,"byteOffset":29376,"componentType":5126,"count":216,"max":[8.942178,19.2545776,1.95441246],"min":[5.170349,-0.8992882,-8.90150452],"type":"VEC3","name":"accessorPositions"},{"bufferView":1,"byteOffset":31968,"componentType":5126,"count":216,"type":"VEC3","name":"accessorNormals"},{"bufferView":0,"byteOffset":2880,"componentType":5123,"count":576,"type":"SCALAR","name":"accessorIndices"},{"bufferView":1,"byteOffset":34560,"componentType":5126,"count":576,"max":[9.690028,44.6682434,-8.90034],"min":[-0.113025188,-0.44631958,-16.6208534],"type":"VEC3","name":"accessorPositions"},{"bufferView":1,"byteOffset":41472,"componentType":5126,"count":576,"type":"VEC3","name":"accessorNormals"}],"bufferViews":[{"buffer":0,"byteLength":4032,"name":"bufferViewScalar"},{"buffer":0,"byteOffset":4032,"byteLength":48384,"byteStride":12,"name":"bufferViewFloatVec3"}],"buffers":[{"uri":"grassA.bin","byteLength":52416}],"materials":[{"pbrMetallicRoughness":{"baseColorFactor":[0.232843176,0.126634,0.0531045832,1.0],"metallicFactor":0.0,"roughnessFactor":0.9},"emissiveFactor":[0.0,0.0,0.0],"alphaMode":"OPAQUE","name":"Material #12"},{"pbrMetallicRoughness":{"baseColorFactor":[0.8578433,0.4575164,0.130718976,1.0],"metallicFactor":0.0,"roughnessFactor":0.9},"emissiveFactor":[0.0,0.0,0.0],"alphaMode":"OPAQUE","name":"Material 2"},{"pbrMetallicRoughness":{"baseColorFactor":[0.964052439,0.8047387,0.245098069,1.0],"metallicFactor":0.0,"roughnessFactor":0.9},"emissiveFactor":[0.0,0.0,0.0],"alphaMode":"OPAQUE","name":"01 - Default"}],"extensions":{"KHR_lights":{"lights":[{"color":[1.0,1.0,1.0],"intensity":1.0,"type":"ambient"}]}}}