{"asset":{"version":"2.0","generator":"babylon.js glTF exporter for 3ds max 2018 v1.2.21","copyright":"2017 (c) BabylonJS"},"extensionsUsed":["KHR_lights"],"scene":0,"scenes":[{"nodes":[0],"extensions":{"KHR_lights":{"light":0}}}],"nodes":[{"children":[1,2,3,4,5],"translation":[-2.399013,21.55465,5.12280655],"rotation":[0.0,0.0,0.0,1.0],"scale":[1.0,1.0,1.0],"name":"Grass"},{"mesh":0,"translation":[-9.595156,-22.0486183,4.20251465],"rotation":[0.0,0.0,0.0,1.0],"scale":[1.0,1.0,1.0],"name":"grass02"},{"mesh":1,"translation":[-5.06833553,-21.6893711,8.012705],"rotation":[0.0,0.0,0.0,1.0],"scale":[1.0,1.0,1.0],"name":"grass03"},{"mesh":2,"translation":[-3.3288784,-21.5961113,8.012705],"rotation":[0.0,0.0,0.0,1.0],"scale":[1.0,1.0,1.0],"name":"grass04"},{"mesh":3,"translation":[-14.1269684,-22.4505672,-5.39405632],"rotation":[0.0,-0.5321242,0.0,0.846666336],"scale":[1.0,1.0,1.0],"name":"grass01"},{"mesh":4,"translation":[8.675081,-21.5961113,-18.936985],"rotation":[0.0,-0.9977862,0.0,0.06650297],"scale":[1.0,1.0,1.0],"name":"grass05"}],"meshes":[{"primitives":[{"attributes":{"POSITION":1,"NORMAL":2},"indices":0,"mode":4,"material":0}],"name":"grass02"},{"primitives":[{"attributes":{"POSITION":4,"NORMAL":5},"indices":3,"mode":4,"material":1}],"name":"grass03"},{"primitives":[{"attributes":{"POSITION":7,"NORMAL":8},"indices":6,"mode":4,"material":2}],"name":"grass04"},{"primitives":[{"attributes":{"POSITION":10,"NORMAL":11},"indices":9,"mode":4,"material":3}],"name":"grass01"},{"primitives":[{"attributes":{"POSITION":13,"NORMAL":14},"indices":12,"mode":4,"material":2}],"name":"grass05"}],"accessors":[{"bufferView":0,"componentType":5123,"count":312,"type":"SCALAR","name":"accessorIndices"},{"bufferView":1,"componentType":5126,"count":312,"max":[8.235595,26.5638046,-4.65283775],"min":[-8.646891,-0.523667336,-14.169632],"type":"VEC3","name":"accessorPositions"},{"bufferView":1,"byteOffset":3744,"componentType":5126,"count":312,"type":"VEC3","name":"accessorNormals"},{"bufferView":0,"byteOffset":624,"componentType":5123,"count":312,"type":"SCALAR","name":"accessorIndices"},{"bufferView":1,"byteOffset":7488,"componentType":5126,"count":312,"max":[19.7392044,39.7741547,-11.060112],"min":[8.742686,-0.709625244,-15.0946026],"type":"VEC3","name":"accessorPositions"},{"bufferView":1,"byteOffset":11232,"componentType":5126,"count":312,"type":"VEC3","name":"accessorNormals"},{"bufferView":0,"byteOffset":1248,"componentType":5123,"count":312,"type":"SCALAR","name":"accessorIndices"},{"bufferView":1,"byteOffset":14976,"componentType":5126,"count":312,"max":[8.987925,19.35067,1.95441246],"min":[5.170349,-0.8992882,-10.4716873],"type":"VEC3","name":"accessorPositions"},{"bufferView":1,"byteOffset":18720,"componentType":5126,"count":312,"type":"VEC3","name":"accessorNormals"},{"bufferView":0,"byteOffset":1872,"componentType":5123,"count":312,"type":"SCALAR","name":"accessorIndices"},{"bufferView":1,"byteOffset":22464,"componentType":5126,"count":312,"max":[9.690028,44.6682434,-8.900339],"min":[-0.113025188,-0.44631958,-16.6208534],"type":"VEC3","name":"accessorPositions"},{"bufferView":1,"byteOffset":26208,"componentType":5126,"count":312,"type":"VEC3","name":"accessorNormals"},{"bufferView":0,"byteOffset":2496,"componentType":5123,"count":288,"type":"SCALAR","name":"accessorIndices"},{"bufferView":1,"byteOffset":29952,"componentType":5126,"count":288,"max":[8.987925,19.35067,1.95441341],"min":[5.170349,-0.8992882,-10.4716873],"type":"VEC3","name":"accessorPositions"},{"bufferView":1,"byteOffset":33408,"componentType":5126,"count":288,"type":"VEC3","name":"accessorNormals"}],"bufferViews":[{"buffer":0,"byteLength":3072,"name":"bufferViewScalar"},{"buffer":0,"byteOffset":3072,"byteLength":36864,"byteStride":12,"name":"bufferViewFloatVec3"}],"buffers":[{"uri":"grassB.bin","byteLength":39936}],"materials":[{"pbrMetallicRoughness":{"baseColorFactor":[0.326797426,0.163398713,0.0531045832,1.0],"metallicFactor":0.0,"roughnessFactor":0.9},"emissiveFactor":[0.0,0.0,0.0],"alphaMode":"OPAQUE","name":"Material 12"},{"pbrMetallicRoughness":{"baseColorFactor":[0.4983661,0.388071924,0.08578432,1.0],"metallicFactor":0.0,"roughnessFactor":0.9},"emissiveFactor":[0.0,0.0,0.0],"alphaMode":"OPAQUE","name":"Material 13"},{"pbrMetallicRoughness":{"baseColorFactor":[0.796568751,0.4575164,0.2042484,1.0],"metallicFactor":0.0,"roughnessFactor":0.9},"emissiveFactor":[0.0,0.0,0.0],"alphaMode":"OPAQUE","name":"Material11"},{"pbrMetallicRoughness":{"baseColorFactor":[0.964052439,0.8047387,0.245098069,1.0],"metallicFactor":0.0,"roughnessFactor":0.9},"emissiveFactor":[0.0,0.0,0.0],"alphaMode":"OPAQUE","name":"01 - Default"}],"extensions":{"KHR_lights":{"lights":[{"color":[1.0,1.0,1.0],"intensity":1.0,"type":"ambient"}]}}}