{"asset":{"version":"2.0","generator":"babylon.js glTF exporter for 3ds max 2018 v1.2.21","copyright":"2017 (c) BabylonJS"},"extensionsUsed":["KHR_lights"],"scene":0,"scenes":[{"nodes":[0],"extensions":{"KHR_lights":{"light":0}}}],"nodes":[{"mesh":0,"translation":[-38.7385445,0.0,95.4485245],"rotation":[-1.0,0.0,0.0,0.0],"scale":[1.0,-1.0,1.0],"name":"Lion001"}],"meshes":[{"primitives":[{"attributes":{"POSITION":1,"NORMAL":2},"indices":0,"mode":4,"material":0},{"attributes":{"POSITION":4,"NORMAL":5},"indices":3,"mode":4,"material":1},{"attributes":{"POSITION":7,"NORMAL":8},"indices":6,"mode":4,"material":2},{"attributes":{"POSITION":10,"NORMAL":11},"indices":9,"mode":4,"material":3},{"attributes":{"POSITION":13,"NORMAL":14},"indices":12,"mode":4,"material":4},{"attributes":{"POSITION":16,"NORMAL":17},"indices":15,"mode":4,"material":5},{"attributes":{"POSITION":19,"NORMAL":20},"indices":18,"mode":4,"material":6}],"name":"Lion001"}],"accessors":[{"bufferView":0,"componentType":5123,"count":5100,"type":"SCALAR","name":"accessorIndices"},{"bufferView":1,"componentType":5126,"count":5100,"max":[109.081329,97.00333,20.5413742],"min":[-73.7906952,-0.7576294,-20.5601044],"type":"VEC3","name":"accessorPositions"},{"bufferView":1,"byteOffset":61200,"componentType":5126,"count":5100,"type":"VEC3","name":"accessorNormals"},{"bufferView":0,"byteOffset":10200,"componentType":5123,"count":240,"type":"SCALAR","name":"accessorIndices"},{"bufferView":1,"byteOffset":122400,"componentType":5126,"count":240,"max":[122.411911,95.30595,14.68895],"min":[-54.9332237,12.5760078,-14.68895],"type":"VEC3","name":"accessorPositions"},{"bufferView":1,"byteOffset":125280,"componentType":5126,"count":240,"type":"VEC3","name":"accessorNormals"},{"bufferView":0,"byteOffset":10680,"componentType":5123,"count":366,"type":"SCALAR","name":"accessorIndices"},{"bufferView":1,"byteOffset":128160,"componentType":5126,"count":366,"max":[-60.9227867,79.8772049,9.514053],"min":[-65.0904846,75.66787,-9.514053],"type":"VEC3","name":"accessorPositions"},{"bufferView":1,"byteOffset":132552,"componentType":5126,"count":366,"type":"VEC3","name":"accessorNormals"},{"bufferView":0,"byteOffset":11412,"componentType":5123,"count":276,"type":"SCALAR","name":"accessorIndices"},{"bufferView":1,"byteOffset":136944,"componentType":5126,"count":276,"max":[-61.211132,79.39814,9.514053],"min":[-73.50339,65.81712,-9.514053],"type":"VEC3","name":"accessorPositions"},{"bufferView":1,"byteOffset":140256,"componentType":5126,"count":276,"type":"VEC3","name":"accessorNormals"},{"bufferView":0,"byteOffset":11964,"componentType":5123,"count":156,"type":"SCALAR","name":"accessorIndices"},{"bufferView":1,"byteOffset":143568,"componentType":5126,"count":156,"max":[-62.20296,79.09664,9.471588],"min":[-71.92543,63.5863075,-9.471588],"type":"VEC3","name":"accessorPositions"},{"bufferView":1,"byteOffset":145440,"componentType":5126,"count":156,"type":"VEC3","name":"accessorNormals"},{"bufferView":0,"byteOffset":12276,"componentType":5123,"count":66,"type":"SCALAR","name":"accessorIndices"},{"bufferView":1,"byteOffset":147312,"componentType":5126,"count":66,"max":[-63.4071846,79.06324,9.429939],"min":[-73.51039,65.8564148,-9.429939],"type":"VEC3","name":"accessorPositions"},{"bufferView":1,"byteOffset":148104,"componentType":5126,"count":66,"type":"VEC3","name":"accessorNormals"},{"bufferView":0,"byteOffset":12408,"componentType":5123,"count":360,"type":"SCALAR","name":"accessorIndices"},{"bufferView":1,"byteOffset":148896,"componentType":5126,"count":360,"max":[-63.76028,67.6730042,6.16499329],"min":[-73.7906952,59.0331078,-6.16492462],"type":"VEC3","name":"accessorPositions"},{"bufferView":1,"byteOffset":153216,"componentType":5126,"count":360,"type":"VEC3","name":"accessorNormals"}],"bufferViews":[{"buffer":0,"byteLength":13128,"name":"bufferViewScalar"},{"buffer":0,"byteOffset":13128,"byteLength":157536,"byteStride":12,"name":"bufferViewFloatVec3"}],"buffers":[{"uri":"lionA.bin","byteLength":170664}],"materials":[{"pbrMetallicRoughness":{"baseColorFactor":[0.551470637,0.3431373,0.1756536,1.0],"metallicFactor":0.0,"roughnessFactor":0.9},"emissiveFactor":[0.0,0.0,0.0],"alphaMode":"OPAQUE","name":"01 - Default"},{"pbrMetallicRoughness":{"baseColorFactor":[0.212418333,0.09395426,0.0612745173,1.0],"metallicFactor":0.0,"roughnessFactor":0.9},"emissiveFactor":[0.0,0.0,0.0],"alphaMode":"OPAQUE","name":"Tail"},{"pbrMetallicRoughness":{"baseColorFactor":[0.5882354,0.5882354,0.5882354,1.0],"metallicFactor":0.0,"roughnessFactor":0.9},"emissiveFactor":[0.0,0.0,0.0],"alphaMode":"OPAQUE","name":"Eyes"},{"pbrMetallicRoughness":{"baseColorFactor":[0.1756536,0.110294133,0.07761439,1.0],"metallicFactor":0.0,"roughnessFactor":0.9},"emissiveFactor":[0.0,0.0,0.0],"alphaMode":"OPAQUE","name":"Eyes2"},{"pbrMetallicRoughness":{"baseColorFactor":[0.0,0.0,0.0,1.0],"metallicFactor":0.0,"roughnessFactor":0.9},"emissiveFactor":[0.0,0.0,0.0],"alphaMode":"OPAQUE","name":"eye3"},{"pbrMetallicRoughness":{"baseColorFactor":[0.796568751,1.0,1.0,1.0],"metallicFactor":0.0,"roughnessFactor":0.9},"emissiveFactor":[0.0,0.0,0.0],"alphaMode":"OPAQUE","name":"eye4"},{"pbrMetallicRoughness":{"baseColorFactor":[0.0612745173,0.05718955,0.05718955,1.0],"metallicFactor":0.0,"roughnessFactor":0.9},"emissiveFactor":[0.0,0.0,0.0],"alphaMode":"OPAQUE","name":"nosemouth"}],"extensions":{"KHR_lights":{"lights":[{"color":[1.0,1.0,1.0],"intensity":1.0,"type":"ambient"}]}}}