{"asset":{"version":"2.0","generator":"babylon.js glTF exporter for 3ds max 2018 v1.2.21","copyright":"2017 (c) BabylonJS"},"extensionsUsed":["KHR_lights"],"scene":0,"scenes":[{"nodes":[0],"extensions":{"KHR_lights":{"light":0}}}],"nodes":[{"mesh":0,"translation":[-38.7385445,0.0,95.4485245],"rotation":[-1.0,0.0,0.0,0.0],"scale":[1.0,-1.0,1.0],"name":"Lion001"}],"meshes":[{"primitives":[{"attributes":{"POSITION":1,"NORMAL":2},"indices":0,"mode":4,"material":0},{"attributes":{"POSITION":4,"NORMAL":5},"indices":3,"mode":4,"material":1},{"attributes":{"POSITION":7,"NORMAL":8},"indices":6,"mode":4,"material":2},{"attributes":{"POSITION":10,"NORMAL":11},"indices":9,"mode":4,"material":3},{"attributes":{"POSITION":13,"NORMAL":14},"indices":12,"mode":4,"material":4},{"attributes":{"POSITION":16,"NORMAL":17},"indices":15,"mode":4,"material":5},{"attributes":{"POSITION":19,"NORMAL":20},"indices":18,"mode":4,"material":6}],"name":"Lion001"}],"accessors":[{"bufferView":0,"componentType":5123,"count":7176,"type":"SCALAR","name":"accessorIndices"},{"bufferView":1,"componentType":5126,"count":7176,"max":[109.081329,97.04086,20.5601044],"min":[-73.7906952,-0.7576294,-20.5601044],"type":"VEC3","name":"accessorPositions"},{"bufferView":1,"byteOffset":86112,"componentType":5126,"count":7176,"type":"VEC3","name":"accessorNormals"},{"bufferView":0,"byteOffset":14352,"componentType":5123,"count":324,"type":"SCALAR","name":"accessorIndices"},{"bufferView":1,"byteOffset":172224,"componentType":5126,"count":324,"max":[122.411911,95.30595,14.68895],"min":[-54.9332237,12.5760078,-14.68895],"type":"VEC3","name":"accessorPositions"},{"bufferView":1,"byteOffset":176112,"componentType":5126,"count":324,"type":"VEC3","name":"accessorNormals"},{"bufferView":0,"byteOffset":15000,"componentType":5123,"count":606,"type":"SCALAR","name":"accessorIndices"},{"bufferView":1,"byteOffset":180000,"componentType":5126,"count":606,"max":[-60.9227867,80.00297,9.514053],"min":[-65.17461,75.66787,-9.514053],"type":"VEC3","name":"accessorPositions"},{"bufferView":1,"byteOffset":187272,"componentType":5126,"count":606,"type":"VEC3","name":"accessorNormals"},{"bufferView":0,"byteOffset":16212,"componentType":5123,"count":276,"type":"SCALAR","name":"accessorIndices"},{"bufferView":1,"byteOffset":194544,"componentType":5126,"count":276,"max":[-61.211132,79.39814,9.514053],"min":[-73.50339,65.81712,-9.514053],"type":"VEC3","name":"accessorPositions"},{"bufferView":1,"byteOffset":197856,"componentType":5126,"count":276,"type":"VEC3","name":"accessorNormals"},{"bufferView":0,"byteOffset":16764,"componentType":5123,"count":156,"type":"SCALAR","name":"accessorIndices"},{"bufferView":1,"byteOffset":201168,"componentType":5126,"count":156,"max":[-62.20296,79.09664,9.471588],"min":[-71.92543,63.5863075,-9.471588],"type":"VEC3","name":"accessorPositions"},{"bufferView":1,"byteOffset":203040,"componentType":5126,"count":156,"type":"VEC3","name":"accessorNormals"},{"bufferView":0,"byteOffset":17076,"componentType":5123,"count":66,"type":"SCALAR","name":"accessorIndices"},{"bufferView":1,"byteOffset":204912,"componentType":5126,"count":66,"max":[-63.4071846,79.06324,9.429939],"min":[-73.51039,65.8564148,-9.429939],"type":"VEC3","name":"accessorPositions"},{"bufferView":1,"byteOffset":205704,"componentType":5126,"count":66,"type":"VEC3","name":"accessorNormals"},{"bufferView":0,"byteOffset":17208,"componentType":5123,"count":360,"type":"SCALAR","name":"accessorIndices"},{"bufferView":1,"byteOffset":206496,"componentType":5126,"count":360,"max":[-63.76028,67.6730042,6.16499329],"min":[-73.7906952,59.0331078,-6.16492462],"type":"VEC3","name":"accessorPositions"},{"bufferView":1,"byteOffset":210816,"componentType":5126,"count":360,"type":"VEC3","name":"accessorNormals"}],"bufferViews":[{"buffer":0,"byteLength":17928,"name":"bufferViewScalar"},{"buffer":0,"byteOffset":17928,"byteLength":215136,"byteStride":12,"name":"bufferViewFloatVec3"}],"buffers":[{"uri":"lion.bin","byteLength":233064}],"materials":[{"pbrMetallicRoughness":{"baseColorFactor":[0.551470637,0.3431373,0.1756536,1.0],"metallicFactor":0.0,"roughnessFactor":0.9},"emissiveFactor":[0.0,0.0,0.0],"alphaMode":"OPAQUE","name":"01 - Default"},{"pbrMetallicRoughness":{"baseColorFactor":[0.212418333,0.09395426,0.0612745173,1.0],"metallicFactor":0.0,"roughnessFactor":0.9},"emissiveFactor":[0.0,0.0,0.0],"alphaMode":"OPAQUE","name":"Tail"},{"pbrMetallicRoughness":{"baseColorFactor":[0.5882354,0.5882354,0.5882354,1.0],"metallicFactor":0.0,"roughnessFactor":0.9},"emissiveFactor":[0.0,0.0,0.0],"alphaMode":"OPAQUE","name":"Eyes"},{"pbrMetallicRoughness":{"baseColorFactor":[0.1756536,0.110294133,0.07761439,1.0],"metallicFactor":0.0,"roughnessFactor":0.9},"emissiveFactor":[0.0,0.0,0.0],"alphaMode":"OPAQUE","name":"Eyes2"},{"pbrMetallicRoughness":{"baseColorFactor":[0.0,0.0,0.0,1.0],"metallicFactor":0.0,"roughnessFactor":0.9},"emissiveFactor":[0.0,0.0,0.0],"alphaMode":"OPAQUE","name":"eye3"},{"pbrMetallicRoughness":{"baseColorFactor":[0.796568751,1.0,1.0,1.0],"metallicFactor":0.0,"roughnessFactor":0.9},"emissiveFactor":[0.0,0.0,0.0],"alphaMode":"OPAQUE","name":"eye4"},{"pbrMetallicRoughness":{"baseColorFactor":[0.0612745173,0.05718955,0.05718955,1.0],"metallicFactor":0.0,"roughnessFactor":0.9},"emissiveFactor":[0.0,0.0,0.0],"alphaMode":"OPAQUE","name":"nosemouth"}],"extensions":{"KHR_lights":{"lights":[{"color":[1.0,1.0,1.0],"intensity":1.0,"type":"ambient"}]}}}