{"asset":{"version":"2.0","generator":"babylon.js glTF exporter for 3ds max 2018 v1.2.21","copyright":"2017 (c) BabylonJS"},"extensionsUsed":["KHR_lights"],"scene":0,"scenes":[{"nodes":[0,1,2],"extensions":{"KHR_lights":{"light":0}}}],"nodes":[{"translation":[4.668458,9.069888,14.4017029],"rotation":[0.597374141,0.0611052625,-0.109506316,0.7920977],"scale":[1.00000083,1.000001,1.0000006],"name":"PhysCamera001.Target"},{"mesh":0,"translation":[-13.5276747,17.0207672,17.86184],"rotation":[0.764691532,0.0009311516,0.000757538248,0.6443954],"scale":[1.0,1.0,1.0],"name":"Cylinder002"},{"camera":0,"translation":[-45.9885635,24.47119,32.33429],"rotation":[-0.113597184,-0.571576357,-0.08029142,0.8086715],"scale":[1.0,1.0,1.0],"name":"PhysCamera001"}],"cameras":[{"perspective":{"yfov":0.6022565,"zfar":10000.0,"znear":0.1},"type":"perspective","name":"PhysCamera001"}],"meshes":[{"primitives":[{"attributes":{"POSITION":1,"NORMAL":2,"TEXCOORD_0":3},"indices":0,"mode":4,"material":0}],"name":"Cylinder002"}],"accessors":[{"bufferView":0,"componentType":5123,"count":2232,"type":"SCALAR","name":"accessorIndices"},{"bufferView":1,"componentType":5126,"count":2232,"max":[11.0276785,7.5881834,15.251997],"min":[-4.35804939,-20.8233566,-2.690611],"type":"VEC3","name":"accessorPositions"},{"bufferView":1,"byteOffset":26784,"componentType":5126,"count":2232,"type":"VEC3","name":"accessorNormals"},{"bufferView":2,"componentType":5126,"count":2232,"type":"VEC2","name":"accessorUVs"}],"bufferViews":[{"buffer":0,"byteLength":4464,"name":"bufferViewScalar"},{"buffer":0,"byteOffset":4464,"byteLength":53568,"byteStride":12,"name":"bufferViewFloatVec3"},{"buffer":0,"byteOffset":58032,"byteLength":17856,"byteStride":8,"name":"bufferViewFloatVec2"}],"buffers":[{"uri":"Mouse.bin","byteLength":75888}],"materials":[{"pbrMetallicRoughness":{"baseColorFactor":[0.155228779,0.14297387,0.13888891,1.0],"metallicFactor":0.0,"roughnessFactor":0.9},"emissiveFactor":[0.0,0.0,0.0],"alphaMode":"OPAQUE","name":"01 - Default"}],"extensions":{"KHR_lights":{"lights":[{"color":[1.0,1.0,1.0],"intensity":1.0,"type":"ambient"}]}}}