{"asset":{"version":"2.0","generator":"babylon.js glTF exporter for 3ds max 2018 v1.2.21","copyright":"2017 (c) BabylonJS"},"extensionsUsed":["KHR_lights"],"scene":0,"scenes":[{"nodes":[0,1,2,3,4,5,6],"extensions":{"KHR_lights":{"light":0}}}],"nodes":[{"translation":[4.79222536,10.1349506,14.4017029],"rotation":[0.591532946,0.103336655,-0.0530288219,0.7978711],"scale":[1.00000072,1.000001,1.00000048],"name":"PhysCamera001.Target"},{"mesh":0,"translation":[-14.3461294,15.4301519,17.86184],"rotation":[0.76270014,0.0551857874,0.0464772731,0.6427153],"scale":[1.0,1.0,1.0],"name":"Cylinder002"},{"mesh":1,"translation":[-9.367968,9.904434,23.1487656],"rotation":[0.0,0.0,0.0,1.0],"scale":[1.0,1.0,1.0],"name":"Sphere001"},{"mesh":2,"translation":[-11.5689335,14.7377453,21.23487],"rotation":[0.0,0.0,0.0,1.0],"scale":[1.0,1.0,1.0],"name":"Sphere002"},{"mesh":3,"translation":[-11.8920383,13.84341,19.6267967],"rotation":[0.0,0.0,0.0,1.0],"scale":[1.0,1.0,1.0],"name":"Sphere003"},{"mesh":3,"translation":[-7.539693,13.8138847,19.140419],"rotation":[0.0,0.0,0.0,1.0],"scale":[1.0,1.0,1.0],"name":"Sphere004"},{"camera":0,"translation":[-45.9885635,24.47119,32.33429],"rotation":[-0.10590148,-0.5726218,-0.0749129057,0.8094919],"scale":[1.0,1.0,1.0],"name":"PhysCamera001"}],"cameras":[{"perspective":{"yfov":0.6022661,"zfar":10000.0,"znear":0.1},"type":"perspective","name":"PhysCamera001"}],"meshes":[{"primitives":[{"attributes":{"POSITION":1,"NORMAL":2,"TEXCOORD_0":3},"indices":0,"mode":4,"material":0}],"name":"Cylinder002"},{"primitives":[{"attributes":{"POSITION":5,"NORMAL":6,"TEXCOORD_0":7},"indices":4,"mode":4,"material":1}],"name":"Sphere001"},{"primitives":[{"attributes":{"POSITION":9,"NORMAL":10,"TEXCOORD_0":11},"indices":8,"mode":4,"material":1}],"name":"Sphere002"},{"primitives":[{"attributes":{"POSITION":13,"NORMAL":14,"TEXCOORD_0":15},"indices":12,"mode":4,"material":1}],"name":"Sphere003"}],"accessors":[{"bufferView":0,"componentType":5123,"count":2232,"type":"SCALAR","name":"accessorIndices"},{"bufferView":1,"componentType":5126,"count":2232,"max":[12.078001,7.58818436,15.2519979],"min":[-4.35805035,-20.8233566,-3.53432846],"type":"VEC3","name":"accessorPositions"},{"bufferView":1,"byteOffset":26784,"componentType":5126,"count":2232,"type":"VEC3","name":"accessorNormals"},{"bufferView":2,"componentType":5126,"count":2232,"type":"VEC2","name":"accessorUVs"},{"bufferView":0,"byteOffset":4464,"componentType":5123,"count":2880,"type":"SCALAR","name":"accessorIndices"},{"bufferView":1,"byteOffset":53568,"componentType":5126,"count":2880,"max":[3.10824013,3.10824013,3.10824013],"min":[-3.10824013,-3.10824013,-3.10824013],"type":"VEC3","name":"accessorPositions"},{"bufferView":1,"byteOffset":88128,"componentType":5126,"count":2880,"type":"VEC3","name":"accessorNormals"},{"bufferView":2,"byteOffset":17856,"componentType":5126,"count":2880,"type":"VEC2","name":"accessorUVs"},{"bufferView":0,"byteOffset":10224,"componentType":5123,"count":2880,"type":"SCALAR","name":"accessorIndices"},{"bufferView":1,"byteOffset":122688,"componentType":5126,"count":2880,"max":[0.0,0.0,0.0],"min":[0.0,0.0,0.0],"type":"VEC3","name":"accessorPositions"},{"bufferView":1,"byteOffset":157248,"componentType":5126,"count":2880,"type":"VEC3","name":"accessorNormals"},{"bufferView":2,"byteOffset":40896,"componentType":5126,"count":2880,"type":"VEC2","name":"accessorUVs"},{"bufferView":0,"byteOffset":15984,"componentType":5123,"count":2880,"type":"SCALAR","name":"accessorIndices"},{"bufferView":1,"byteOffset":191808,"componentType":5126,"count":2880,"max":[0.6597862,0.6597862,0.6597862],"min":[-0.6597862,-0.6597862,-0.6597862],"type":"VEC3","name":"accessorPositions"},{"bufferView":1,"byteOffset":226368,"componentType":5126,"count":2880,"type":"VEC3","name":"accessorNormals"},{"bufferView":2,"byteOffset":63936,"componentType":5126,"count":2880,"type":"VEC2","name":"accessorUVs"}],"bufferViews":[{"buffer":0,"byteLength":21744,"name":"bufferViewScalar"},{"buffer":0,"byteOffset":21744,"byteLength":260928,"byteStride":12,"name":"bufferViewFloatVec3"},{"buffer":0,"byteOffset":282672,"byteLength":86976,"byteStride":8,"name":"bufferViewFloatVec2"}],"buffers":[{"uri":"MouseA.bin","byteLength":369648}],"materials":[{"pbrMetallicRoughness":{"baseColorFactor":[0.461601377,0.4452615,0.4452615,1.0],"metallicFactor":0.0,"roughnessFactor":0.9},"emissiveFactor":[0.0,0.0,0.0],"alphaMode":"OPAQUE","name":"01 - Default"},{"pbrMetallicRoughness":{"baseColorFactor":[0.008169936,0.0,0.004084968,1.0],"metallicFactor":0.0,"roughnessFactor":0.9},"emissiveFactor":[0.0,0.0,0.0],"alphaMode":"OPAQUE","name":"02 - Default"}],"extensions":{"KHR_lights":{"lights":[{"color":[1.0,1.0,1.0],"intensity":1.0,"type":"ambient"}]}}}