{"asset":{"version":"2.0","generator":"babylon.js glTF exporter for 3ds max 2018 v1.2.21","copyright":"2017 (c) BabylonJS"},"extensionsUsed":["KHR_lights"],"scene":0,"scenes":[{"nodes":[0],"extensions":{"KHR_lights":{"light":0}}}],"nodes":[{"mesh":0,"translation":[-3812.44458,0.0,-6228.6377],"rotation":[0.0,0.0,0.0,1.0],"scale":[1.0,1.0,1.0],"name":"Cone001"}],"meshes":[{"primitives":[{"attributes":{"POSITION":1,"NORMAL":2},"indices":0,"mode":4,"material":0},{"attributes":{"POSITION":4,"NORMAL":5},"indices":3,"mode":4,"material":1}],"name":"Cone001"}],"accessors":[{"bufferView":0,"componentType":5123,"count":1200,"type":"SCALAR","name":"accessorIndices"},{"bufferView":1,"componentType":5126,"count":1200,"max":[1159.73853,191.990784,2120.39453],"min":[1106.737,-2.73400879,2069.93945],"type":"VEC3","name":"accessorPositions"},{"bufferView":1,"byteOffset":14400,"componentType":5126,"count":1200,"type":"VEC3","name":"accessorNormals"},{"bufferView":0,"byteOffset":2400,"componentType":5123,"count":864,"type":"SCALAR","name":"accessorIndices"},{"bufferView":1,"byteOffset":28800,"componentType":5126,"count":864,"max":[1155.721,203.32782,2121.69922],"min":[1122.01563,176.703613,2086.51758],"type":"VEC3","name":"accessorPositions"},{"bufferView":1,"byteOffset":39168,"componentType":5126,"count":864,"type":"VEC3","name":"accessorNormals"}],"bufferViews":[{"buffer":0,"byteLength":4128,"name":"bufferViewScalar"},{"buffer":0,"byteOffset":4128,"byteLength":49536,"byteStride":12,"name":"bufferViewFloatVec3"}],"buffers":[{"uri":"TreeModelC.bin","byteLength":53664}],"materials":[{"pbrMetallicRoughness":{"baseColorFactor":[0.155228779,0.08986929,0.0326797441,1.0],"metallicFactor":0.0,"roughnessFactor":0.9},"emissiveFactor":[0.0,0.0,0.0],"alphaMode":"OPAQUE","name":"boom"},{"pbrMetallicRoughness":{"baseColorFactor":[0.122549035,0.363562137,0.0490196161,1.0],"metallicFactor":0.0,"roughnessFactor":0.9},"emissiveFactor":[0.0,0.0,0.0],"alphaMode":"OPAQUE","name":"Material #45"}],"extensions":{"KHR_lights":{"lights":[{"color":[1.0,1.0,1.0],"intensity":1.0,"type":"ambient"}]}}}