{"asset":{"version":"2.0","generator":"babylon.js glTF exporter for 3ds max 2018 v1.2.21","copyright":"2017 (c) BabylonJS"},"extensionsUsed":["KHR_lights"],"scene":0,"scenes":[{"nodes":[0],"extensions":{"KHR_lights":{"light":0}}}],"nodes":[{"mesh":0,"translation":[-0.741332531,-0.601760864,3.83052063],"rotation":[0.00257410784,0.14607279,0.009114113,0.9892285],"scale":[1.0,1.0,1.0],"name":"Cylinder001"}],"meshes":[{"primitives":[{"attributes":{"POSITION":1,"NORMAL":2,"TEXCOORD_0":3},"indices":0,"mode":4,"material":0}],"name":"Cylinder001"}],"accessors":[{"bufferView":0,"componentType":5123,"count":594,"type":"SCALAR","name":"accessorIndices"},{"bufferView":1,"componentType":5126,"count":594,"max":[57.1299057,231.054718,37.56124],"min":[-80.16901,0.442306548,-30.78707],"type":"VEC3","name":"accessorPositions"},{"bufferView":1,"byteOffset":7128,"componentType":5126,"count":594,"type":"VEC3","name":"accessorNormals"},{"bufferView":2,"componentType":5126,"count":594,"type":"VEC2","name":"accessorUVs"}],"bufferViews":[{"buffer":0,"byteLength":1188,"name":"bufferViewScalar"},{"buffer":0,"byteOffset":1188,"byteLength":14256,"byteStride":12,"name":"bufferViewFloatVec3"},{"buffer":0,"byteOffset":15444,"byteLength":4752,"byteStride":8,"name":"bufferViewFloatVec2"}],"buffers":[{"uri":"TreeModel A.bin","byteLength":20196}],"materials":[{"pbrMetallicRoughness":{"baseColorFactor":[0.277777821,0.1511438,0.07761439,1.0],"metallicFactor":0.0,"roughnessFactor":0.9},"emissiveFactor":[0.0,0.0,0.0],"alphaMode":"OPAQUE","name":"01 - Default"}],"extensions":{"KHR_lights":{"lights":[{"color":[1.0,1.0,1.0],"intensity":1.0,"type":"ambient"}]}}}