{"asset":{"version":"2.0","generator":"babylon.js glTF exporter for 3ds max 2018 v1.2.21","copyright":"2017 (c) BabylonJS"},"extensionsUsed":["KHR_lights"],"scene":0,"scenes":[{"nodes":[0,1,2],"extensions":{"KHR_lights":{"light":0}}}],"nodes":[{"mesh":0,"translation":[-2663.6582,0.0,-4130.06348],"rotation":[0.0,0.0,0.0,1.0],"scale":[1.0,1.0,1.0],"name":"Cylinder001"},{"mesh":1,"translation":[-2662.19287,187.408264,-4130.42041],"rotation":[0.0,0.0,0.0,1.0],"scale":[1.0,1.0,1.0],"name":"Cone001"},{"mesh":2,"translation":[-2686.08984,179.741333,-4110.146],"rotation":[0.2512862,0.3643306,0.5152132,0.7339441],"scale":[0.327788621,0.327788621,0.327788681],"name":"Cone002"}],"meshes":[{"primitives":[{"attributes":{"POSITION":1,"NORMAL":2},"indices":0,"mode":4,"material":0}],"name":"Cylinder001"},{"primitives":[{"attributes":{"POSITION":4,"NORMAL":5},"indices":3,"mode":4,"material":1}],"name":"Cone001"},{"primitives":[{"attributes":{"POSITION":7,"NORMAL":8},"indices":6,"mode":4,"material":1}],"name":"Cone002"}],"accessors":[{"bufferView":0,"componentType":5123,"count":1188,"type":"SCALAR","name":"accessorIndices"},{"bufferView":1,"componentType":5126,"count":1188,"max":[10.9519043,191.990784,21.8203125],"min":[-42.0493164,-2.73400879,-28.6347656],"type":"VEC3","name":"accessorPositions"},{"bufferView":1,"byteOffset":14256,"componentType":5126,"count":1188,"type":"VEC3","name":"accessorNormals"},{"bufferView":0,"byteOffset":2376,"componentType":5123,"count":468,"type":"SCALAR","name":"accessorIndices"},{"bufferView":1,"byteOffset":28512,"componentType":5126,"count":468,"max":[9.81543,13.615036,12.3291016],"min":[-15.6967773,-0.5135803,-14.8203125],"type":"VEC3","name":"accessorPositions"},{"bufferView":1,"byteOffset":34128,"componentType":5126,"count":468,"type":"VEC3","name":"accessorNormals"},{"bufferView":0,"byteOffset":3312,"componentType":5123,"count":468,"type":"SCALAR","name":"accessorIndices"},{"bufferView":1,"byteOffset":39744,"componentType":5126,"count":468,"max":[9.81543,13.6147461,12.328125],"min":[-15.6967773,-0.5126953,-14.8212891],"type":"VEC3","name":"accessorPositions"},{"bufferView":1,"byteOffset":45360,"componentType":5126,"count":468,"type":"VEC3","name":"accessorNormals"}],"bufferViews":[{"buffer":0,"byteLength":4248,"name":"bufferViewScalar"},{"buffer":0,"byteOffset":4248,"byteLength":50976,"byteStride":12,"name":"bufferViewFloatVec3"}],"buffers":[{"uri":"TreeModelC.bin","byteLength":55224}],"materials":[{"pbrMetallicRoughness":{"baseColorFactor":[0.2287582,0.130718976,0.0612745173,1.0],"metallicFactor":0.0,"roughnessFactor":0.9},"emissiveFactor":[0.0,0.0,0.0],"alphaMode":"OPAQUE","name":"Tree"},{"pbrMetallicRoughness":{"baseColorFactor":[0.147058845,0.224673241,0.1021242,1.0],"metallicFactor":0.0,"roughnessFactor":0.9},"emissiveFactor":[0.0,0.0,0.0],"alphaMode":"OPAQUE","name":"Bush"}],"extensions":{"KHR_lights":{"lights":[{"color":[1.0,1.0,1.0],"intensity":1.0,"type":"ambient"}]}}}