{"asset":{"version":"2.0","generator":"babylon.js glTF exporter for 3ds max 2018 v1.2.21","copyright":"2017 (c) BabylonJS"},"extensionsUsed":["KHR_lights"],"scene":0,"scenes":[{"nodes":[0],"extensions":{"KHR_lights":{"light":0}}}],"nodes":[{"mesh":0,"translation":[-2.12076259,0.0188055038,-1.11399484],"rotation":[0.0,0.0130895991,0.0,0.999914348],"scale":[0.9076341,0.9508764,0.9076341],"name":"Cylinder001"}],"meshes":[{"primitives":[{"attributes":{"POSITION":1,"NORMAL":2,"TEXCOORD_0":3},"indices":0,"mode":4,"material":0}],"name":"Cylinder001"}],"accessors":[{"bufferView":0,"componentType":5123,"count":1902,"type":"SCALAR","name":"accessorIndices"},{"bufferView":1,"componentType":5126,"count":1902,"max":[44.2083664,266.002747,67.52112],"min":[-44.5633621,0.0,-60.284687],"type":"VEC3","name":"accessorPositions"},{"bufferView":1,"byteOffset":22824,"componentType":5126,"count":1902,"type":"VEC3","name":"accessorNormals"},{"bufferView":2,"componentType":5126,"count":1902,"type":"VEC2","name":"accessorUVs"}],"bufferViews":[{"buffer":0,"byteLength":3804,"name":"bufferViewScalar"},{"buffer":0,"byteOffset":3804,"byteLength":45648,"byteStride":12,"name":"bufferViewFloatVec3"},{"buffer":0,"byteOffset":49452,"byteLength":15216,"byteStride":8,"name":"bufferViewFloatVec2"}],"buffers":[{"uri":"TreeModelB.bin","byteLength":64668}],"materials":[{"pbrMetallicRoughness":{"baseColorFactor":[0.7189543,0.543300748,0.2042484,1.0],"metallicFactor":0.0,"roughnessFactor":0.9},"emissiveFactor":[0.0,0.0,0.0],"alphaMode":"OPAQUE","name":"01 - Default"}],"extensions":{"KHR_lights":{"lights":[{"color":[1.0,1.0,1.0],"intensity":1.0,"type":"ambient"}]}}}